<svg width="563" height="353" viewBox="0 0 563 353" fill="none" xmlns="http://www.w3.org/2000/svg">
<g filter="url(#filter0_d_160_9513)">
<g clip-path="url(#clip0_160_9513)">
<rect x="4" width="555" height="345" rx="20" fill="white"/>
<path d="M421.992 32.242V39.452C421.992 40.2547 421.745 40.8987 421.25 41.384C420.755 41.86 420.102 42.098 419.29 42.098C418.469 42.098 417.811 41.8553 417.316 41.37C416.821 40.8753 416.574 40.2033 416.574 39.354H417.848C417.857 39.83 417.979 40.2173 418.212 40.516C418.455 40.8147 418.814 40.964 419.29 40.964C419.766 40.964 420.121 40.824 420.354 40.544C420.587 40.2547 420.704 39.8907 420.704 39.452V32.242H421.992ZM431.502 37.87C431.502 38.1127 431.488 38.3693 431.46 38.64H425.328C425.374 39.396 425.631 39.9887 426.098 40.418C426.574 40.838 427.148 41.048 427.82 41.048C428.37 41.048 428.828 40.922 429.192 40.67C429.565 40.4087 429.826 40.0633 429.976 39.634H431.348C431.142 40.3713 430.732 40.9733 430.116 41.44C429.5 41.8973 428.734 42.126 427.82 42.126C427.092 42.126 426.438 41.9627 425.86 41.636C425.29 41.3093 424.842 40.8473 424.516 40.25C424.189 39.6433 424.026 38.9433 424.026 38.15C424.026 37.3567 424.184 36.6613 424.502 36.064C424.819 35.4667 425.262 35.0093 425.832 34.692C426.41 34.3653 427.073 34.202 427.82 34.202C428.548 34.202 429.192 34.3607 429.752 34.678C430.312 34.9953 430.741 35.434 431.04 35.994C431.348 36.5447 431.502 37.17 431.502 37.87ZM430.186 37.604C430.186 37.1187 430.078 36.7033 429.864 36.358C429.649 36.0033 429.355 35.7373 428.982 35.56C428.618 35.3733 428.212 35.28 427.764 35.28C427.12 35.28 426.569 35.4853 426.112 35.896C425.664 36.3067 425.407 36.876 425.342 37.604H430.186ZM436.921 34.188C437.855 34.188 438.611 34.4727 439.189 35.042C439.768 35.602 440.057 36.414 440.057 37.478V42H438.797V37.66C438.797 36.8947 438.606 36.3113 438.223 35.91C437.841 35.4993 437.318 35.294 436.655 35.294C435.983 35.294 435.447 35.504 435.045 35.924C434.653 36.344 434.457 36.9553 434.457 37.758V42H433.183V34.328H434.457V35.42C434.709 35.028 435.05 34.7247 435.479 34.51C435.918 34.2953 436.399 34.188 436.921 34.188ZM442.797 33.082C442.554 33.082 442.349 32.998 442.181 32.83C442.013 32.662 441.929 32.4567 441.929 32.214C441.929 31.9713 442.013 31.766 442.181 31.598C442.349 31.43 442.554 31.346 442.797 31.346C443.03 31.346 443.226 31.43 443.385 31.598C443.553 31.766 443.637 31.9713 443.637 32.214C443.637 32.4567 443.553 32.662 443.385 32.83C443.226 32.998 443.03 33.082 442.797 33.082ZM443.413 34.328V42H442.139V34.328H443.413ZM448.3 42.126C447.712 42.126 447.185 42.028 446.718 41.832C446.251 41.6267 445.883 41.3467 445.612 40.992C445.341 40.628 445.192 40.2127 445.164 39.746H446.48C446.517 40.1287 446.695 40.4413 447.012 40.684C447.339 40.9267 447.763 41.048 448.286 41.048C448.771 41.048 449.154 40.9407 449.434 40.726C449.714 40.5113 449.854 40.2407 449.854 39.914C449.854 39.578 449.705 39.3307 449.406 39.172C449.107 39.004 448.645 38.8407 448.02 38.682C447.451 38.5327 446.984 38.3833 446.62 38.234C446.265 38.0753 445.957 37.8467 445.696 37.548C445.444 37.24 445.318 36.8387 445.318 36.344C445.318 35.952 445.435 35.5927 445.668 35.266C445.901 34.9393 446.233 34.6827 446.662 34.496C447.091 34.3 447.581 34.202 448.132 34.202C448.981 34.202 449.667 34.4167 450.19 34.846C450.713 35.2753 450.993 35.8633 451.03 36.61H449.756C449.728 36.2087 449.565 35.8867 449.266 35.644C448.977 35.4013 448.585 35.28 448.09 35.28C447.633 35.28 447.269 35.378 446.998 35.574C446.727 35.77 446.592 36.0267 446.592 36.344C446.592 36.596 446.671 36.806 446.83 36.974C446.998 37.1327 447.203 37.2633 447.446 37.366C447.698 37.4593 448.043 37.5667 448.482 37.688C449.033 37.8373 449.481 37.9867 449.826 38.136C450.171 38.276 450.465 38.4907 450.708 38.78C450.96 39.0693 451.091 39.4473 451.1 39.914C451.1 40.334 450.983 40.712 450.75 41.048C450.517 41.384 450.185 41.65 449.756 41.846C449.336 42.0327 448.851 42.126 448.3 42.126ZM461.923 42L457.905 37.548V42H456.631V32.242H457.905V36.764L461.937 32.242H463.547L459.123 37.128L463.589 42H461.923ZM472.012 37.87C472.012 38.1127 471.998 38.3693 471.97 38.64H465.838C465.884 39.396 466.141 39.9887 466.608 40.418C467.084 40.838 467.658 41.048 468.33 41.048C468.88 41.048 469.338 40.922 469.702 40.67C470.075 40.4087 470.336 40.0633 470.486 39.634H471.858C471.652 40.3713 471.242 40.9733 470.626 41.44C470.01 41.8973 469.244 42.126 468.33 42.126C467.602 42.126 466.948 41.9627 466.37 41.636C465.8 41.3093 465.352 40.8473 465.026 40.25C464.699 39.6433 464.536 38.9433 464.536 38.15C464.536 37.3567 464.694 36.6613 465.012 36.064C465.329 35.4667 465.772 35.0093 466.342 34.692C466.92 34.3653 467.583 34.202 468.33 34.202C469.058 34.202 469.702 34.3607 470.262 34.678C470.822 34.9953 471.251 35.434 471.55 35.994C471.858 36.5447 472.012 37.17 472.012 37.87ZM470.696 37.604C470.696 37.1187 470.588 36.7033 470.374 36.358C470.159 36.0033 469.865 35.7373 469.492 35.56C469.128 35.3733 468.722 35.28 468.274 35.28C467.63 35.28 467.079 35.4853 466.622 35.896C466.174 36.3067 465.917 36.876 465.852 37.604H470.696ZM474.967 31.64V42H473.693V31.64H474.967ZM476.663 38.136C476.663 37.352 476.821 36.666 477.139 36.078C477.456 35.4807 477.89 35.0187 478.441 34.692C479.001 34.3653 479.621 34.202 480.303 34.202C480.975 34.202 481.558 34.3467 482.053 34.636C482.547 34.9253 482.916 35.2893 483.159 35.728V34.328H484.447V42H483.159V40.572C482.907 41.02 482.529 41.3933 482.025 41.692C481.53 41.9813 480.951 42.126 480.289 42.126C479.607 42.126 478.991 41.958 478.441 41.622C477.89 41.286 477.456 40.8147 477.139 40.208C476.821 39.6013 476.663 38.9107 476.663 38.136ZM483.159 38.15C483.159 37.5713 483.042 37.0673 482.809 36.638C482.575 36.2087 482.258 35.882 481.857 35.658C481.465 35.4247 481.031 35.308 480.555 35.308C480.079 35.308 479.645 35.42 479.253 35.644C478.861 35.868 478.548 36.1947 478.315 36.624C478.081 37.0533 477.965 37.5573 477.965 38.136C477.965 38.724 478.081 39.2373 478.315 39.676C478.548 40.1053 478.861 40.4367 479.253 40.67C479.645 40.894 480.079 41.006 480.555 41.006C481.031 41.006 481.465 40.894 481.857 40.67C482.258 40.4367 482.575 40.1053 482.809 39.676C483.042 39.2373 483.159 38.7287 483.159 38.15ZM495.825 34.188C496.423 34.188 496.955 34.314 497.421 34.566C497.888 34.8087 498.257 35.1773 498.527 35.672C498.798 36.1667 498.933 36.7687 498.933 37.478V42H497.673V37.66C497.673 36.8947 497.482 36.3113 497.099 35.91C496.726 35.4993 496.217 35.294 495.573 35.294C494.911 35.294 494.383 35.5087 493.991 35.938C493.599 36.358 493.403 36.9693 493.403 37.772V42H492.143V37.66C492.143 36.8947 491.952 36.3113 491.569 35.91C491.196 35.4993 490.687 35.294 490.043 35.294C489.381 35.294 488.853 35.5087 488.461 35.938C488.069 36.358 487.873 36.9693 487.873 37.772V42H486.599V34.328H487.873V35.434C488.125 35.0327 488.461 34.7247 488.881 34.51C489.311 34.2953 489.782 34.188 490.295 34.188C490.939 34.188 491.509 34.3327 492.003 34.622C492.498 34.9113 492.867 35.336 493.109 35.896C493.324 35.3547 493.679 34.9347 494.173 34.636C494.668 34.3373 495.219 34.188 495.825 34.188ZM501.681 33.082C501.439 33.082 501.233 32.998 501.065 32.83C500.897 32.662 500.813 32.4567 500.813 32.214C500.813 31.9713 500.897 31.766 501.065 31.598C501.233 31.43 501.439 31.346 501.681 31.346C501.915 31.346 502.111 31.43 502.269 31.598C502.437 31.766 502.521 31.9713 502.521 32.214C502.521 32.4567 502.437 32.662 502.269 32.83C502.111 32.998 501.915 33.082 501.681 33.082ZM502.297 34.328V42H501.023V34.328H502.297ZM508.207 34.188C509.14 34.188 509.896 34.4727 510.475 35.042C511.053 35.602 511.343 36.414 511.343 37.478V42H510.083V37.66C510.083 36.8947 509.891 36.3113 509.509 35.91C509.126 35.4993 508.603 35.294 507.941 35.294C507.269 35.294 506.732 35.504 506.331 35.924C505.939 36.344 505.743 36.9553 505.743 37.758V42H504.469V34.328H505.743V35.42C505.995 35.028 506.335 34.7247 506.765 34.51C507.203 34.2953 507.684 34.188 508.207 34.188Z" fill="black"/>
<path d="M529.458 35.9167L525.5 39.875L521.542 35.9167L529.458 35.9167Z" fill="black"/>
<path d="M43.56 35.36C43.56 36.1067 43.38 36.8067 43.02 37.46C42.6733 38.1133 42.12 38.64 41.36 39.04C40.6133 39.44 39.6667 39.64 38.52 39.64H36.18V45H33.38V31.04H38.52C39.6 31.04 40.52 31.2267 41.28 31.6C42.04 31.9733 42.6067 32.4867 42.98 33.14C43.3667 33.7933 43.56 34.5333 43.56 35.36ZM38.4 37.38C39.1733 37.38 39.7467 37.2067 40.12 36.86C40.4933 36.5 40.68 36 40.68 35.36C40.68 34 39.92 33.32 38.4 33.32H36.18V37.38H38.4ZM55.848 39.22C55.848 39.62 55.8213 39.98 55.768 40.3H47.668C47.7346 41.1 48.0146 41.7267 48.508 42.18C49.0013 42.6333 49.608 42.86 50.328 42.86C51.368 42.86 52.108 42.4133 52.548 41.52H55.568C55.248 42.5867 54.6346 43.4667 53.728 44.16C52.8213 44.84 51.708 45.18 50.388 45.18C49.3213 45.18 48.3613 44.9467 47.508 44.48C46.668 44 46.008 43.3267 45.528 42.46C45.0613 41.5933 44.828 40.5933 44.828 39.46C44.828 38.3133 45.0613 37.3067 45.528 36.44C45.9946 35.5733 46.648 34.9067 47.488 34.44C48.328 33.9733 49.2946 33.74 50.388 33.74C51.4413 33.74 52.3813 33.9667 53.208 34.42C54.048 34.8733 54.6946 35.52 55.148 36.36C55.6146 37.1867 55.848 38.14 55.848 39.22ZM52.948 38.42C52.9346 37.7 52.6746 37.1267 52.168 36.7C51.6613 36.26 51.0413 36.04 50.308 36.04C49.6146 36.04 49.028 36.2533 48.548 36.68C48.0813 37.0933 47.7946 37.6733 47.688 38.42H52.948ZM64.0317 33.76C65.3517 33.76 66.4184 34.18 67.2317 35.02C68.0451 35.8467 68.4517 37.0067 68.4517 38.5V45H65.6517V38.88C65.6517 38 65.4317 37.3267 64.9917 36.86C64.5517 36.38 63.9517 36.14 63.1917 36.14C62.4184 36.14 61.8051 36.38 61.3517 36.86C60.9117 37.3267 60.6917 38 60.6917 38.88V45H57.8917V33.92H60.6917V35.3C61.0651 34.82 61.5384 34.4467 62.1117 34.18C62.6984 33.9 63.3384 33.76 64.0317 33.76ZM72.5344 32.6C72.0277 32.6 71.6077 32.4467 71.2744 32.14C70.9544 31.82 70.7944 31.4267 70.7944 30.96C70.7944 30.4933 70.9544 30.1067 71.2744 29.8C71.6077 29.48 72.0277 29.32 72.5344 29.32C73.0277 29.32 73.4344 29.48 73.7544 29.8C74.0744 30.1067 74.2344 30.4933 74.2344 30.96C74.2344 31.4267 74.0744 31.82 73.7544 32.14C73.4344 32.4467 73.0277 32.6 72.5344 32.6ZM73.9144 46.82C73.9144 48.0467 73.6077 48.9267 72.9944 49.46C72.3944 50.0067 71.5277 50.28 70.3944 50.28H69.1544V47.9H69.9544C70.381 47.9 70.681 47.8133 70.8544 47.64C71.0277 47.48 71.1144 47.2133 71.1144 46.84V33.92H73.9144V46.82ZM87.1408 33.92V45H84.3208V43.6C83.9608 44.08 83.4874 44.46 82.9008 44.74C82.3274 45.0067 81.7008 45.14 81.0208 45.14C80.1541 45.14 79.3874 44.96 78.7208 44.6C78.0541 44.2267 77.5274 43.6867 77.1408 42.98C76.7674 42.26 76.5808 41.4067 76.5808 40.42V33.92H79.3808V40.02C79.3808 40.9 79.6008 41.58 80.0408 42.06C80.4808 42.5267 81.0808 42.76 81.8408 42.76C82.6141 42.76 83.2208 42.5267 83.6608 42.06C84.1008 41.58 84.3208 40.9 84.3208 40.02V33.92H87.1408ZM89.1834 39.42C89.1834 38.3 89.4034 37.3067 89.8434 36.44C90.2968 35.5733 90.9034 34.9067 91.6634 34.44C92.4368 33.9733 93.2968 33.74 94.2434 33.74C95.0701 33.74 95.7901 33.9067 96.4034 34.24C97.0301 34.5733 97.5301 34.9933 97.9034 35.5V33.92H100.723V45H97.9034V43.38C97.5434 43.9 97.0434 44.3333 96.4034 44.68C95.7768 45.0133 95.0501 45.18 94.2234 45.18C93.2901 45.18 92.4368 44.94 91.6634 44.46C90.9034 43.98 90.2968 43.3067 89.8434 42.44C89.4034 41.56 89.1834 40.5533 89.1834 39.42ZM97.9034 39.46C97.9034 38.78 97.7701 38.2 97.5034 37.72C97.2368 37.2267 96.8768 36.8533 96.4234 36.6C95.9701 36.3333 95.4834 36.2 94.9634 36.2C94.4434 36.2 93.9634 36.3267 93.5234 36.58C93.0834 36.8333 92.7234 37.2067 92.4434 37.7C92.1768 38.18 92.0434 38.7533 92.0434 39.42C92.0434 40.0867 92.1768 40.6733 92.4434 41.18C92.7234 41.6733 93.0834 42.0533 93.5234 42.32C93.9768 42.5867 94.4568 42.72 94.9634 42.72C95.4834 42.72 95.9701 42.5933 96.4234 42.34C96.8768 42.0733 97.2368 41.7 97.5034 41.22C97.7701 40.7267 97.9034 40.14 97.9034 39.46ZM106.258 30.2V45H103.458V30.2H106.258ZM108.305 39.42C108.305 38.3 108.525 37.3067 108.965 36.44C109.418 35.5733 110.025 34.9067 110.785 34.44C111.558 33.9733 112.418 33.74 113.365 33.74C114.191 33.74 114.911 33.9067 115.525 34.24C116.151 34.5733 116.651 34.9933 117.025 35.5V33.92H119.845V45H117.025V43.38C116.665 43.9 116.165 44.3333 115.525 44.68C114.898 45.0133 114.171 45.18 113.345 45.18C112.411 45.18 111.558 44.94 110.785 44.46C110.025 43.98 109.418 43.3067 108.965 42.44C108.525 41.56 108.305 40.5533 108.305 39.42ZM117.025 39.46C117.025 38.78 116.891 38.2 116.625 37.72C116.358 37.2267 115.998 36.8533 115.545 36.6C115.091 36.3333 114.605 36.2 114.085 36.2C113.565 36.2 113.085 36.3267 112.645 36.58C112.205 36.8333 111.845 37.2067 111.565 37.7C111.298 38.18 111.165 38.7533 111.165 39.42C111.165 40.0867 111.298 40.6733 111.565 41.18C111.845 41.6733 112.205 42.0533 112.645 42.32C113.098 42.5867 113.578 42.72 114.085 42.72C114.605 42.72 115.091 42.5933 115.545 42.34C115.998 42.0733 116.358 41.7 116.625 41.22C116.891 40.7267 117.025 40.14 117.025 39.46ZM128.719 33.76C130.039 33.76 131.106 34.18 131.919 35.02C132.733 35.8467 133.139 37.0067 133.139 38.5V45H130.339V38.88C130.339 38 130.119 37.3267 129.679 36.86C129.239 36.38 128.639 36.14 127.879 36.14C127.106 36.14 126.493 36.38 126.039 36.86C125.599 37.3267 125.379 38 125.379 38.88V45H122.579V33.92H125.379V35.3C125.753 34.82 126.226 34.4467 126.799 34.18C127.386 33.9 128.026 33.76 128.719 33.76ZM150.068 31.04V33.3H146.348V45H143.548V33.3H139.828V31.04H150.068ZM153.53 32.6C153.037 32.6 152.624 32.4467 152.29 32.14C151.97 31.82 151.81 31.4267 151.81 30.96C151.81 30.4933 151.97 30.1067 152.29 29.8C152.624 29.48 153.037 29.32 153.53 29.32C154.024 29.32 154.43 29.48 154.75 29.8C155.084 30.1067 155.25 30.4933 155.25 30.96C155.25 31.4267 155.084 31.82 154.75 32.14C154.43 32.4467 154.024 32.6 153.53 32.6ZM154.91 33.92V45H152.11V33.92H154.91ZM164.237 45L160.477 40.28V45H157.677V30.2H160.477V38.62L164.197 33.92H167.837L162.957 39.48L167.877 45H164.237ZM179.657 39.22C179.657 39.62 179.63 39.98 179.577 40.3H171.477C171.543 41.1 171.823 41.7267 172.317 42.18C172.81 42.6333 173.417 42.86 174.137 42.86C175.177 42.86 175.917 42.4133 176.357 41.52H179.377C179.057 42.5867 178.443 43.4667 177.537 44.16C176.63 44.84 175.517 45.18 174.197 45.18C173.13 45.18 172.17 44.9467 171.317 44.48C170.477 44 169.817 43.3267 169.337 42.46C168.87 41.5933 168.637 40.5933 168.637 39.46C168.637 38.3133 168.87 37.3067 169.337 36.44C169.803 35.5733 170.457 34.9067 171.297 34.44C172.137 33.9733 173.103 33.74 174.197 33.74C175.25 33.74 176.19 33.9667 177.017 34.42C177.857 34.8733 178.503 35.52 178.957 36.36C179.423 37.1867 179.657 38.14 179.657 39.22ZM176.757 38.42C176.743 37.7 176.483 37.1267 175.977 36.7C175.47 36.26 174.85 36.04 174.117 36.04C173.423 36.04 172.837 36.2533 172.357 36.68C171.89 37.0933 171.603 37.6733 171.497 38.42H176.757ZM184.96 36.22V41.58C184.96 41.9533 185.047 42.2267 185.22 42.4C185.407 42.56 185.714 42.64 186.14 42.64H187.44V45H185.68C183.32 45 182.14 43.8533 182.14 41.56V36.22H180.82V33.92H182.14V31.18H184.96V33.92H187.44V36.22H184.96Z" fill="black"/>
<circle cx="281.5" cy="141.5" r="71.4999" transform="rotate(-90 281.5 141.5)" fill="#6AD2FF"/>
<path d="M281.5 70.0002C292.515 70.0002 303.381 72.5452 313.251 77.4367C323.12 82.3282 331.726 89.4338 338.397 98.1993C345.068 106.965 349.623 117.153 351.708 127.969C353.792 138.785 353.35 149.937 350.414 160.553C347.479 171.17 342.13 180.965 334.786 189.175C327.441 197.384 318.299 203.785 308.073 207.879C297.847 211.972 286.813 213.648 275.833 212.775C264.852 211.902 254.222 208.504 244.771 202.845L281.5 141.5L281.5 70.0002Z" fill="#264ECA"/>
<g filter="url(#filter1_d_160_9513)">
<rect x="36" y="234" width="491" height="75" rx="15" fill="white"/>
<line x1="197.5" y1="295" x2="197.5" y2="248" stroke="#F4F7FE"/>
<path d="M91.352 264.964H94.768V266H90.078V256.242H91.352V264.964ZM95.645 262.136C95.645 261.352 95.8036 260.666 96.121 260.078C96.4383 259.481 96.8723 259.019 97.423 258.692C97.983 258.365 98.6036 258.202 99.285 258.202C99.957 258.202 100.54 258.347 101.035 258.636C101.53 258.925 101.898 259.289 102.141 259.728V258.328H103.429V266H102.141V264.572C101.889 265.02 101.511 265.393 101.007 265.692C100.512 265.981 99.9336 266.126 99.271 266.126C98.5896 266.126 97.9736 265.958 97.423 265.622C96.8723 265.286 96.4383 264.815 96.121 264.208C95.8036 263.601 95.645 262.911 95.645 262.136ZM102.141 262.15C102.141 261.571 102.024 261.067 101.791 260.638C101.558 260.209 101.24 259.882 100.839 259.658C100.447 259.425 100.013 259.308 99.537 259.308C99.061 259.308 98.627 259.42 98.235 259.644C97.843 259.868 97.5303 260.195 97.297 260.624C97.0636 261.053 96.947 261.557 96.947 262.136C96.947 262.724 97.0636 263.237 97.297 263.676C97.5303 264.105 97.843 264.437 98.235 264.67C98.627 264.894 99.061 265.006 99.537 265.006C100.013 265.006 100.447 264.894 100.839 264.67C101.24 264.437 101.558 264.105 101.791 263.676C102.024 263.237 102.141 262.729 102.141 262.15ZM109.866 266L106.856 262.612V266H105.582V255.64H106.856V261.73L109.81 258.328H111.588L107.976 262.15L111.602 266H109.866ZM113.445 257.082C113.202 257.082 112.997 256.998 112.829 256.83C112.661 256.662 112.577 256.457 112.577 256.214C112.577 255.971 112.661 255.766 112.829 255.598C112.997 255.43 113.202 255.346 113.445 255.346C113.678 255.346 113.874 255.43 114.033 255.598C114.201 255.766 114.285 255.971 114.285 256.214C114.285 256.457 114.201 256.662 114.033 256.83C113.874 256.998 113.678 257.082 113.445 257.082ZM114.061 258.328V266H112.787V258.328H114.061ZM121.552 260.33V261.408H115.966V260.33H121.552ZM125.217 255.64V266H123.943V255.64H125.217ZM126.913 262.136C126.913 261.352 127.071 260.666 127.389 260.078C127.706 259.481 128.14 259.019 128.691 258.692C129.251 258.365 129.871 258.202 130.553 258.202C131.225 258.202 131.808 258.347 132.303 258.636C132.797 258.925 133.166 259.289 133.409 259.728V258.328H134.697V266H133.409V264.572C133.157 265.02 132.779 265.393 132.275 265.692C131.78 265.981 131.201 266.126 130.539 266.126C129.857 266.126 129.241 265.958 128.691 265.622C128.14 265.286 127.706 264.815 127.389 264.208C127.071 263.601 126.913 262.911 126.913 262.136ZM133.409 262.15C133.409 261.571 133.292 261.067 133.059 260.638C132.825 260.209 132.508 259.882 132.107 259.658C131.715 259.425 131.281 259.308 130.805 259.308C130.329 259.308 129.895 259.42 129.503 259.644C129.111 259.868 128.798 260.195 128.565 260.624C128.331 261.053 128.215 261.557 128.215 262.136C128.215 262.724 128.331 263.237 128.565 263.676C128.798 264.105 129.111 264.437 129.503 264.67C129.895 264.894 130.329 265.006 130.805 265.006C131.281 265.006 131.715 264.894 132.107 264.67C132.508 264.437 132.825 264.105 133.059 263.676C133.292 263.237 133.409 262.729 133.409 262.15ZM141.133 266L138.123 262.612V266H136.849V255.64H138.123V261.73L141.077 258.328H142.855L139.243 262.15L142.869 266H141.133ZM144.713 257.082C144.47 257.082 144.265 256.998 144.097 256.83C143.929 256.662 143.845 256.457 143.845 256.214C143.845 255.971 143.929 255.766 144.097 255.598C144.265 255.43 144.47 255.346 144.713 255.346C144.946 255.346 145.142 255.43 145.301 255.598C145.469 255.766 145.553 255.971 145.553 256.214C145.553 256.457 145.469 256.662 145.301 256.83C145.142 256.998 144.946 257.082 144.713 257.082ZM145.329 258.328V266H144.055V258.328H145.329Z" fill="black"/>
<path d="M94.958 285.216C94.01 285.216 93.212 285.042 92.564 284.694C91.916 284.346 91.394 283.878 90.998 283.29C90.602 282.702 90.314 282.048 90.134 281.328C89.966 280.608 89.882 279.87 89.882 279.114C89.882 277.71 90.08 276.492 90.476 275.46C90.872 274.416 91.442 273.612 92.186 273.048C92.93 272.472 93.83 272.184 94.886 272.184C95.75 272.184 96.482 272.358 97.082 272.706C97.694 273.042 98.168 273.486 98.504 274.038C98.84 274.59 99.038 275.184 99.098 275.82H96.956C96.848 275.268 96.614 274.842 96.254 274.542C95.894 274.242 95.432 274.092 94.868 274.092C94.064 274.092 93.416 274.464 92.924 275.208C92.432 275.94 92.168 277.062 92.132 278.574C92.42 278.082 92.852 277.674 93.428 277.35C94.004 277.026 94.646 276.864 95.354 276.864C96.05 276.864 96.704 277.032 97.316 277.368C97.928 277.704 98.42 278.178 98.792 278.79C99.176 279.402 99.368 280.122 99.368 280.95C99.368 281.706 99.182 282.408 98.81 283.056C98.45 283.704 97.934 284.226 97.262 284.622C96.602 285.018 95.834 285.216 94.958 285.216ZM94.832 283.236C95.504 283.236 96.056 283.032 96.488 282.624C96.932 282.204 97.154 281.676 97.154 281.04C97.154 280.368 96.932 279.828 96.488 279.42C96.044 279.012 95.48 278.808 94.796 278.808C94.352 278.808 93.95 278.91 93.59 279.114C93.242 279.306 92.966 279.57 92.762 279.906C92.558 280.23 92.456 280.596 92.456 281.004C92.456 281.652 92.678 282.186 93.122 282.606C93.578 283.026 94.148 283.236 94.832 283.236ZM106.438 285.216C105.274 285.216 104.278 284.946 103.45 284.406C102.622 283.854 101.98 283.092 101.524 282.12C101.08 281.136 100.858 279.996 100.858 278.7C100.858 277.416 101.08 276.282 101.524 275.298C101.98 274.314 102.622 273.552 103.45 273.012C104.278 272.46 105.274 272.184 106.438 272.184C107.602 272.184 108.598 272.46 109.426 273.012C110.254 273.552 110.89 274.314 111.334 275.298C111.79 276.282 112.018 277.416 112.018 278.7C112.018 279.996 111.79 281.136 111.334 282.12C110.89 283.092 110.254 283.854 109.426 284.406C108.598 284.946 107.602 285.216 106.438 285.216ZM106.438 283.146C107.386 283.146 108.16 282.75 108.76 281.958C109.36 281.166 109.66 280.08 109.66 278.7C109.66 277.32 109.36 276.234 108.76 275.442C108.16 274.65 107.386 274.254 106.438 274.254C105.478 274.254 104.698 274.65 104.098 275.442C103.51 276.234 103.216 277.32 103.216 278.7C103.216 280.08 103.51 281.166 104.098 281.958C104.698 282.75 105.478 283.146 106.438 283.146ZM116.284 278.592C115.708 278.592 115.186 278.466 114.718 278.214C114.25 277.95 113.878 277.578 113.602 277.098C113.326 276.618 113.188 276.048 113.188 275.388C113.188 274.728 113.326 274.158 113.602 273.678C113.878 273.198 114.25 272.832 114.718 272.58C115.186 272.316 115.714 272.184 116.302 272.184C116.878 272.184 117.394 272.316 117.85 272.58C118.318 272.832 118.69 273.198 118.966 273.678C119.242 274.158 119.38 274.728 119.38 275.388C119.38 276.048 119.242 276.618 118.966 277.098C118.69 277.578 118.318 277.95 117.85 278.214C117.382 278.466 116.86 278.592 116.284 278.592ZM115.6 285L122.71 272.4H124.96L117.85 285H115.6ZM116.284 276.99C116.632 276.99 116.932 276.858 117.184 276.594C117.436 276.318 117.562 275.916 117.562 275.388C117.562 274.86 117.436 274.458 117.184 274.182C116.944 273.906 116.644 273.768 116.284 273.768C115.924 273.768 115.618 273.906 115.366 274.182C115.126 274.458 115.006 274.86 115.006 275.388C115.006 275.916 115.126 276.318 115.366 276.594C115.618 276.858 115.924 276.99 116.284 276.99ZM124.348 285.216C123.772 285.216 123.25 285.09 122.782 284.838C122.314 284.574 121.942 284.202 121.666 283.722C121.39 283.242 121.252 282.672 121.252 282.012C121.252 281.352 121.39 280.788 121.666 280.32C121.942 279.84 122.314 279.474 122.782 279.222C123.25 278.958 123.778 278.826 124.366 278.826C124.942 278.826 125.458 278.958 125.914 279.222C126.382 279.474 126.754 279.84 127.03 280.32C127.306 280.788 127.444 281.352 127.444 282.012C127.444 282.672 127.306 283.242 127.03 283.722C126.754 284.202 126.382 284.574 125.914 284.838C125.458 285.09 124.936 285.216 124.348 285.216ZM124.348 283.614C124.708 283.614 125.008 283.482 125.248 283.218C125.5 282.942 125.626 282.54 125.626 282.012C125.626 281.484 125.5 281.082 125.248 280.806C125.008 280.53 124.708 280.392 124.348 280.392C123.988 280.392 123.682 280.53 123.43 280.806C123.19 281.082 123.07 281.484 123.07 282.012C123.07 282.54 123.19 282.942 123.43 283.218C123.682 283.482 123.988 283.614 124.348 283.614Z" fill="black"/>
<circle cx="80" cy="261" r="4" fill="#264ECA"/>
<path d="M444.602 259.098C444.602 259.91 444.322 260.587 443.762 261.128C443.211 261.66 442.367 261.926 441.228 261.926H439.352V266H438.078V256.242H441.228C442.329 256.242 443.165 256.508 443.734 257.04C444.313 257.572 444.602 258.258 444.602 259.098ZM441.228 260.876C441.937 260.876 442.46 260.722 442.796 260.414C443.132 260.106 443.3 259.667 443.3 259.098C443.3 257.894 442.609 257.292 441.228 257.292H439.352V260.876H441.228ZM453.185 261.87C453.185 262.113 453.171 262.369 453.143 262.64H447.011C447.058 263.396 447.315 263.989 447.781 264.418C448.257 264.838 448.831 265.048 449.503 265.048C450.054 265.048 450.511 264.922 450.875 264.67C451.249 264.409 451.51 264.063 451.659 263.634H453.031C452.826 264.371 452.415 264.973 451.799 265.44C451.183 265.897 450.418 266.126 449.503 266.126C448.775 266.126 448.122 265.963 447.543 265.636C446.974 265.309 446.526 264.847 446.199 264.25C445.873 263.643 445.709 262.943 445.709 262.15C445.709 261.357 445.868 260.661 446.185 260.064C446.503 259.467 446.946 259.009 447.515 258.692C448.094 258.365 448.757 258.202 449.503 258.202C450.231 258.202 450.875 258.361 451.435 258.678C451.995 258.995 452.425 259.434 452.723 259.994C453.031 260.545 453.185 261.17 453.185 261.87ZM451.869 261.604C451.869 261.119 451.762 260.703 451.547 260.358C451.333 260.003 451.039 259.737 450.665 259.56C450.301 259.373 449.895 259.28 449.447 259.28C448.803 259.28 448.253 259.485 447.795 259.896C447.347 260.307 447.091 260.876 447.025 261.604H451.869ZM456.141 259.574C456.365 259.135 456.682 258.795 457.093 258.552C457.513 258.309 458.022 258.188 458.619 258.188V259.504H458.283C456.855 259.504 456.141 260.279 456.141 261.828V266H454.867V258.328H456.141V259.574ZM467.09 261.87C467.09 262.113 467.076 262.369 467.048 262.64H460.916C460.962 263.396 461.219 263.989 461.686 264.418C462.162 264.838 462.736 265.048 463.408 265.048C463.958 265.048 464.416 264.922 464.78 264.67C465.153 264.409 465.414 264.063 465.564 263.634H466.936C466.73 264.371 466.32 264.973 465.704 265.44C465.088 265.897 464.322 266.126 463.408 266.126C462.68 266.126 462.026 265.963 461.448 265.636C460.878 265.309 460.43 264.847 460.104 264.25C459.777 263.643 459.614 262.943 459.614 262.15C459.614 261.357 459.772 260.661 460.09 260.064C460.407 259.467 460.85 259.009 461.42 258.692C461.998 258.365 462.661 258.202 463.408 258.202C464.136 258.202 464.78 258.361 465.34 258.678C465.9 258.995 466.329 259.434 466.628 259.994C466.936 260.545 467.09 261.17 467.09 261.87ZM465.774 261.604C465.774 261.119 465.666 260.703 465.452 260.358C465.237 260.003 464.943 259.737 464.57 259.56C464.206 259.373 463.8 259.28 463.352 259.28C462.708 259.28 462.157 259.485 461.7 259.896C461.252 260.307 460.995 260.876 460.93 261.604H465.774ZM477.997 258.188C478.595 258.188 479.127 258.314 479.593 258.566C480.06 258.809 480.429 259.177 480.699 259.672C480.97 260.167 481.105 260.769 481.105 261.478V266H479.845V261.66C479.845 260.895 479.654 260.311 479.271 259.91C478.898 259.499 478.389 259.294 477.745 259.294C477.083 259.294 476.555 259.509 476.163 259.938C475.771 260.358 475.575 260.969 475.575 261.772V266H474.315V261.66C474.315 260.895 474.124 260.311 473.741 259.91C473.368 259.499 472.859 259.294 472.215 259.294C471.553 259.294 471.025 259.509 470.633 259.938C470.241 260.358 470.045 260.969 470.045 261.772V266H468.771V258.328H470.045V259.434C470.297 259.033 470.633 258.725 471.053 258.51C471.483 258.295 471.954 258.188 472.467 258.188C473.111 258.188 473.681 258.333 474.175 258.622C474.67 258.911 475.039 259.336 475.281 259.896C475.496 259.355 475.851 258.935 476.345 258.636C476.84 258.337 477.391 258.188 477.997 258.188ZM484.469 259.742C484.721 259.303 485.095 258.939 485.589 258.65C486.093 258.351 486.677 258.202 487.339 258.202C488.021 258.202 488.637 258.365 489.187 258.692C489.747 259.019 490.186 259.481 490.503 260.078C490.821 260.666 490.979 261.352 490.979 262.136C490.979 262.911 490.821 263.601 490.503 264.208C490.186 264.815 489.747 265.286 489.187 265.622C488.637 265.958 488.021 266.126 487.339 266.126C486.686 266.126 486.107 265.981 485.603 265.692C485.109 265.393 484.731 265.025 484.469 264.586V269.64H483.195V258.328H484.469V259.742ZM489.677 262.136C489.677 261.557 489.561 261.053 489.327 260.624C489.094 260.195 488.777 259.868 488.375 259.644C487.983 259.42 487.549 259.308 487.073 259.308C486.607 259.308 486.173 259.425 485.771 259.658C485.379 259.882 485.062 260.213 484.819 260.652C484.586 261.081 484.469 261.581 484.469 262.15C484.469 262.729 484.586 263.237 484.819 263.676C485.062 264.105 485.379 264.437 485.771 264.67C486.173 264.894 486.607 265.006 487.073 265.006C487.549 265.006 487.983 264.894 488.375 264.67C488.777 264.437 489.094 264.105 489.327 263.676C489.561 263.237 489.677 262.724 489.677 262.136ZM499.46 258.328V266H498.186V264.866C497.943 265.258 497.603 265.566 497.164 265.79C496.735 266.005 496.259 266.112 495.736 266.112C495.139 266.112 494.602 265.991 494.126 265.748C493.65 265.496 493.272 265.123 492.992 264.628C492.721 264.133 492.586 263.531 492.586 262.822V258.328H493.846V262.654C493.846 263.41 494.037 263.993 494.42 264.404C494.803 264.805 495.325 265.006 495.988 265.006C496.669 265.006 497.206 264.796 497.598 264.376C497.99 263.956 498.186 263.345 498.186 262.542V258.328H499.46ZM501.135 262.136C501.135 261.352 501.294 260.666 501.611 260.078C501.929 259.481 502.363 259.019 502.913 258.692C503.473 258.365 504.094 258.202 504.775 258.202C505.447 258.202 506.031 258.347 506.525 258.636C507.02 258.925 507.389 259.289 507.631 259.728V258.328H508.919V266H507.631V264.572C507.379 265.02 507.001 265.393 506.497 265.692C506.003 265.981 505.424 266.126 504.761 266.126C504.08 266.126 503.464 265.958 502.913 265.622C502.363 265.286 501.929 264.815 501.611 264.208C501.294 263.601 501.135 262.911 501.135 262.136ZM507.631 262.15C507.631 261.571 507.515 261.067 507.281 260.638C507.048 260.209 506.731 259.882 506.329 259.658C505.937 259.425 505.503 259.308 505.027 259.308C504.551 259.308 504.117 259.42 503.725 259.644C503.333 259.868 503.021 260.195 502.787 260.624C502.554 261.053 502.437 261.557 502.437 262.136C502.437 262.724 502.554 263.237 502.787 263.676C503.021 264.105 503.333 264.437 503.725 264.67C504.117 264.894 504.551 265.006 505.027 265.006C505.503 265.006 505.937 264.894 506.329 264.67C506.731 264.437 507.048 264.105 507.281 263.676C507.515 263.237 507.631 262.729 507.631 262.15ZM514.81 258.188C515.743 258.188 516.499 258.473 517.078 259.042C517.657 259.602 517.946 260.414 517.946 261.478V266H516.686V261.66C516.686 260.895 516.495 260.311 516.112 259.91C515.729 259.499 515.207 259.294 514.544 259.294C513.872 259.294 513.335 259.504 512.934 259.924C512.542 260.344 512.346 260.955 512.346 261.758V266H511.072V258.328H512.346V259.42C512.598 259.028 512.939 258.725 513.368 258.51C513.807 258.295 514.287 258.188 514.81 258.188Z" fill="black"/>
<path d="M443.984 285V282.66H437.774V280.824L443.678 272.4H446.288V280.662H447.944V282.66H446.288V285H443.984ZM440.24 280.662H444.128V274.938L440.24 280.662ZM454.561 285.216C453.397 285.216 452.401 284.946 451.573 284.406C450.745 283.854 450.103 283.092 449.647 282.12C449.203 281.136 448.981 279.996 448.981 278.7C448.981 277.416 449.203 276.282 449.647 275.298C450.103 274.314 450.745 273.552 451.573 273.012C452.401 272.46 453.397 272.184 454.561 272.184C455.725 272.184 456.721 272.46 457.549 273.012C458.377 273.552 459.013 274.314 459.457 275.298C459.913 276.282 460.141 277.416 460.141 278.7C460.141 279.996 459.913 281.136 459.457 282.12C459.013 283.092 458.377 283.854 457.549 284.406C456.721 284.946 455.725 285.216 454.561 285.216ZM454.561 283.146C455.509 283.146 456.283 282.75 456.883 281.958C457.483 281.166 457.783 280.08 457.783 278.7C457.783 277.32 457.483 276.234 456.883 275.442C456.283 274.65 455.509 274.254 454.561 274.254C453.601 274.254 452.821 274.65 452.221 275.442C451.633 276.234 451.339 277.32 451.339 278.7C451.339 280.08 451.633 281.166 452.221 281.958C452.821 282.75 453.601 283.146 454.561 283.146ZM464.407 278.592C463.831 278.592 463.309 278.466 462.841 278.214C462.373 277.95 462.001 277.578 461.725 277.098C461.449 276.618 461.311 276.048 461.311 275.388C461.311 274.728 461.449 274.158 461.725 273.678C462.001 273.198 462.373 272.832 462.841 272.58C463.309 272.316 463.837 272.184 464.425 272.184C465.001 272.184 465.517 272.316 465.973 272.58C466.441 272.832 466.813 273.198 467.089 273.678C467.365 274.158 467.503 274.728 467.503 275.388C467.503 276.048 467.365 276.618 467.089 277.098C466.813 277.578 466.441 277.95 465.973 278.214C465.505 278.466 464.983 278.592 464.407 278.592ZM463.723 285L470.833 272.4H473.083L465.973 285H463.723ZM464.407 276.99C464.755 276.99 465.055 276.858 465.307 276.594C465.559 276.318 465.685 275.916 465.685 275.388C465.685 274.86 465.559 274.458 465.307 274.182C465.067 273.906 464.767 273.768 464.407 273.768C464.047 273.768 463.741 273.906 463.489 274.182C463.249 274.458 463.129 274.86 463.129 275.388C463.129 275.916 463.249 276.318 463.489 276.594C463.741 276.858 464.047 276.99 464.407 276.99ZM472.471 285.216C471.895 285.216 471.373 285.09 470.905 284.838C470.437 284.574 470.065 284.202 469.789 283.722C469.513 283.242 469.375 282.672 469.375 282.012C469.375 281.352 469.513 280.788 469.789 280.32C470.065 279.84 470.437 279.474 470.905 279.222C471.373 278.958 471.901 278.826 472.489 278.826C473.065 278.826 473.581 278.958 474.037 279.222C474.505 279.474 474.877 279.84 475.153 280.32C475.429 280.788 475.567 281.352 475.567 282.012C475.567 282.672 475.429 283.242 475.153 283.722C474.877 284.202 474.505 284.574 474.037 284.838C473.581 285.09 473.059 285.216 472.471 285.216ZM472.471 283.614C472.831 283.614 473.131 283.482 473.371 283.218C473.623 282.942 473.749 282.54 473.749 282.012C473.749 281.484 473.623 281.082 473.371 280.806C473.131 280.53 472.831 280.392 472.471 280.392C472.111 280.392 471.805 280.53 471.553 280.806C471.313 281.082 471.193 281.484 471.193 282.012C471.193 282.54 471.313 282.942 471.553 283.218C471.805 283.482 472.111 283.614 472.471 283.614Z" fill="black"/>
<circle cx="428" cy="261" r="4" fill="#6AD2FF"/>
</g>
<circle cx="282" cy="142" r="49" fill="white"/>
<path d="M269.67 148.216C268.806 148.216 268.026 148.066 267.33 147.766C266.634 147.454 266.076 147.016 265.656 146.452C265.248 145.888 265.044 145.234 265.044 144.49C265.044 143.722 265.242 143.05 265.638 142.474C266.046 141.898 266.58 141.484 267.24 141.232C266.664 140.98 266.208 140.62 265.872 140.152C265.536 139.672 265.368 139.138 265.368 138.55C265.368 137.95 265.53 137.398 265.854 136.894C266.178 136.378 266.658 135.964 267.294 135.652C267.942 135.34 268.734 135.184 269.67 135.184C270.606 135.184 271.392 135.34 272.028 135.652C272.664 135.964 273.144 136.378 273.468 136.894C273.792 137.398 273.954 137.95 273.954 138.55C273.954 139.126 273.78 139.66 273.432 140.152C273.096 140.632 272.646 140.992 272.082 141.232C272.754 141.484 273.288 141.898 273.684 142.474C274.08 143.05 274.278 143.722 274.278 144.49C274.278 145.234 274.074 145.888 273.666 146.452C273.258 147.016 272.7 147.454 271.992 147.766C271.296 148.066 270.522 148.216 269.67 148.216ZM269.67 140.548C270.294 140.548 270.786 140.386 271.146 140.062C271.506 139.738 271.686 139.324 271.686 138.82C271.686 138.268 271.506 137.836 271.146 137.524C270.798 137.212 270.306 137.056 269.67 137.056C269.022 137.056 268.524 137.212 268.176 137.524C267.828 137.836 267.654 138.268 267.654 138.82C267.654 139.336 267.828 139.756 268.176 140.08C268.536 140.392 269.034 140.548 269.67 140.548ZM269.67 146.29C270.438 146.29 271.02 146.104 271.416 145.732C271.812 145.348 272.01 144.868 272.01 144.292C272.01 143.656 271.8 143.158 271.38 142.798C270.972 142.438 270.402 142.258 269.67 142.258C268.938 142.258 268.356 142.438 267.924 142.798C267.504 143.158 267.294 143.656 267.294 144.292C267.294 144.868 267.492 145.348 267.888 145.732C268.296 146.104 268.89 146.29 269.67 146.29ZM281.278 148.216C280.33 148.216 279.532 148.042 278.884 147.694C278.236 147.346 277.714 146.878 277.318 146.29C276.922 145.702 276.634 145.048 276.454 144.328C276.286 143.608 276.202 142.87 276.202 142.114C276.202 140.71 276.4 139.492 276.796 138.46C277.192 137.416 277.762 136.612 278.506 136.048C279.25 135.472 280.15 135.184 281.206 135.184C282.07 135.184 282.802 135.358 283.402 135.706C284.014 136.042 284.488 136.486 284.824 137.038C285.16 137.59 285.358 138.184 285.418 138.82H283.276C283.168 138.268 282.934 137.842 282.574 137.542C282.214 137.242 281.752 137.092 281.188 137.092C280.384 137.092 279.736 137.464 279.244 138.208C278.752 138.94 278.488 140.062 278.452 141.574C278.74 141.082 279.172 140.674 279.748 140.35C280.324 140.026 280.966 139.864 281.674 139.864C282.37 139.864 283.024 140.032 283.636 140.368C284.248 140.704 284.74 141.178 285.112 141.79C285.496 142.402 285.688 143.122 285.688 143.95C285.688 144.706 285.502 145.408 285.13 146.056C284.77 146.704 284.254 147.226 283.582 147.622C282.922 148.018 282.154 148.216 281.278 148.216ZM281.152 146.236C281.824 146.236 282.376 146.032 282.808 145.624C283.252 145.204 283.474 144.676 283.474 144.04C283.474 143.368 283.252 142.828 282.808 142.42C282.364 142.012 281.8 141.808 281.116 141.808C280.672 141.808 280.27 141.91 279.91 142.114C279.562 142.306 279.286 142.57 279.082 142.906C278.878 143.23 278.776 143.596 278.776 144.004C278.776 144.652 278.998 145.186 279.442 145.606C279.898 146.026 280.468 146.236 281.152 146.236ZM293.119 148.216C291.955 148.216 290.959 147.946 290.131 147.406C289.303 146.854 288.661 146.092 288.205 145.12C287.761 144.136 287.539 142.996 287.539 141.7C287.539 140.416 287.761 139.282 288.205 138.298C288.661 137.314 289.303 136.552 290.131 136.012C290.959 135.46 291.955 135.184 293.119 135.184C294.283 135.184 295.279 135.46 296.107 136.012C296.935 136.552 297.571 137.314 298.015 138.298C298.471 139.282 298.699 140.416 298.699 141.7C298.699 142.996 298.471 144.136 298.015 145.12C297.571 146.092 296.935 146.854 296.107 147.406C295.279 147.946 294.283 148.216 293.119 148.216ZM293.119 146.146C294.067 146.146 294.841 145.75 295.441 144.958C296.041 144.166 296.341 143.08 296.341 141.7C296.341 140.32 296.041 139.234 295.441 138.442C294.841 137.65 294.067 137.254 293.119 137.254C292.159 137.254 291.379 137.65 290.779 138.442C290.191 139.234 289.897 140.32 289.897 141.7C289.897 143.08 290.191 144.166 290.779 144.958C291.379 145.75 292.159 146.146 293.119 146.146Z" fill="black"/>
</g>
</g>
<defs>
<filter id="filter0_d_160_9513" x="0" y="0" width="563" height="353" filterUnits="userSpaceOnUse" color-interpolation-filters="sRGB">
<feFlood flood-opacity="0" result="BackgroundImageFix"/>
<feColorMatrix in="SourceAlpha" type="matrix" values="0 0 0 0 0 0 0 0 0 0 0 0 0 0 0 0 0 0 127 0" result="hardAlpha"/>
<feOffset dy="4"/>
<feGaussianBlur stdDeviation="2"/>
<feComposite in2="hardAlpha" operator="out"/>
<feColorMatrix type="matrix" values="0 0 0 0 0 0 0 0 0 0 0 0 0 0 0 0 0 0 0.25 0"/>
<feBlend mode="normal" in2="BackgroundImageFix" result="effect1_dropShadow_160_9513"/>
<feBlend mode="normal" in="SourceGraphic" in2="effect1_dropShadow_160_9513" result="shape"/>
</filter>
<filter id="filter1_d_160_9513" x="-4" y="212" width="571" height="155" filterUnits="userSpaceOnUse" color-interpolation-filters="sRGB">
<feFlood flood-opacity="0" result="BackgroundImageFix"/>
<feColorMatrix in="SourceAlpha" type="matrix" values="0 0 0 0 0 0 0 0 0 0 0 0 0 0 0 0 0 0 127 0" result="hardAlpha"/>
<feOffset dy="18"/>
<feGaussianBlur stdDeviation="20"/>
<feColorMatrix type="matrix" values="0 0 0 0 0.439216 0 0 0 0 0.564706 0 0 0 0 0.690196 0 0 0 0.12 0"/>
<feBlend mode="normal" in2="BackgroundImageFix" result="effect1_dropShadow_160_9513"/>
<feBlend mode="normal" in="SourceGraphic" in2="effect1_dropShadow_160_9513" result="shape"/>
</filter>
<clipPath id="clip0_160_9513">
<rect x="4" width="555" height="345" rx="20" fill="white"/>
</clipPath>
</defs>
</svg>
