<svg width="563" height="353" viewBox="0 0 563 353" fill="none" xmlns="http://www.w3.org/2000/svg">
<g filter="url(#filter0_d_160_9537)">
<rect x="4" width="555" height="345" rx="20" fill="white"/>
<path d="M52.189 300.144C51.413 300.144 50.749 299.964 50.197 299.604C49.645 299.236 49.217 298.728 48.913 298.08C48.617 297.424 48.469 296.664 48.469 295.8C48.469 294.944 48.617 294.188 48.913 293.532C49.217 292.876 49.645 292.368 50.197 292.008C50.749 291.64 51.413 291.456 52.189 291.456C52.965 291.456 53.629 291.64 54.181 292.008C54.733 292.368 55.157 292.876 55.453 293.532C55.757 294.188 55.909 294.944 55.909 295.8C55.909 296.664 55.757 297.424 55.453 298.08C55.157 298.728 54.733 299.236 54.181 299.604C53.629 299.964 52.965 300.144 52.189 300.144ZM52.189 298.764C52.821 298.764 53.337 298.5 53.737 297.972C54.137 297.444 54.337 296.72 54.337 295.8C54.337 294.88 54.137 294.156 53.737 293.628C53.337 293.1 52.821 292.836 52.189 292.836C51.549 292.836 51.029 293.1 50.629 293.628C50.237 294.156 50.041 294.88 50.041 295.8C50.041 296.72 50.237 297.444 50.629 297.972C51.029 298.5 51.549 298.764 52.189 298.764ZM60.4686 300.144C59.6926 300.144 59.0286 299.964 58.4766 299.604C57.9246 299.236 57.4966 298.728 57.1926 298.08C56.8966 297.424 56.7486 296.664 56.7486 295.8C56.7486 294.944 56.8966 294.188 57.1926 293.532C57.4966 292.876 57.9246 292.368 58.4766 292.008C59.0286 291.64 59.6926 291.456 60.4686 291.456C61.2446 291.456 61.9086 291.64 62.4606 292.008C63.0126 292.368 63.4366 292.876 63.7326 293.532C64.0366 294.188 64.1886 294.944 64.1886 295.8C64.1886 296.664 64.0366 297.424 63.7326 298.08C63.4366 298.728 63.0126 299.236 62.4606 299.604C61.9086 299.964 61.2446 300.144 60.4686 300.144ZM60.4686 298.764C61.1006 298.764 61.6166 298.5 62.0166 297.972C62.4166 297.444 62.6166 296.72 62.6166 295.8C62.6166 294.88 62.4166 294.156 62.0166 293.628C61.6166 293.1 61.1006 292.836 60.4686 292.836C59.8286 292.836 59.3086 293.1 58.9086 293.628C58.5166 294.156 58.3206 294.88 58.3206 295.8C58.3206 296.72 58.5166 297.444 58.9086 297.972C59.3086 298.5 59.8286 298.764 60.4686 298.764Z" fill="#B0BBD5"/>
<path d="M127.926 300.144C127.15 300.144 126.486 299.964 125.934 299.604C125.382 299.236 124.954 298.728 124.65 298.08C124.354 297.424 124.206 296.664 124.206 295.8C124.206 294.944 124.354 294.188 124.65 293.532C124.954 292.876 125.382 292.368 125.934 292.008C126.486 291.64 127.15 291.456 127.926 291.456C128.702 291.456 129.366 291.64 129.918 292.008C130.47 292.368 130.894 292.876 131.19 293.532C131.494 294.188 131.646 294.944 131.646 295.8C131.646 296.664 131.494 297.424 131.19 298.08C130.894 298.728 130.47 299.236 129.918 299.604C129.366 299.964 128.702 300.144 127.926 300.144ZM127.926 298.764C128.558 298.764 129.074 298.5 129.474 297.972C129.874 297.444 130.074 296.72 130.074 295.8C130.074 294.88 129.874 294.156 129.474 293.628C129.074 293.1 128.558 292.836 127.926 292.836C127.286 292.836 126.766 293.1 126.366 293.628C125.974 294.156 125.778 294.88 125.778 295.8C125.778 296.72 125.974 297.444 126.366 297.972C126.766 298.5 127.286 298.764 127.926 298.764ZM136.602 300V298.44H132.462V297.216L136.398 291.6H138.138V297.108H139.242V298.44H138.138V300H136.602ZM134.106 297.108H136.698V293.292L134.106 297.108Z" fill="#B0BBD5"/>
<path d="M203.318 300.144C202.542 300.144 201.878 299.964 201.326 299.604C200.774 299.236 200.346 298.728 200.042 298.08C199.746 297.424 199.598 296.664 199.598 295.8C199.598 294.944 199.746 294.188 200.042 293.532C200.346 292.876 200.774 292.368 201.326 292.008C201.878 291.64 202.542 291.456 203.318 291.456C204.094 291.456 204.758 291.64 205.31 292.008C205.862 292.368 206.286 292.876 206.582 293.532C206.886 294.188 207.038 294.944 207.038 295.8C207.038 296.664 206.886 297.424 206.582 298.08C206.286 298.728 205.862 299.236 205.31 299.604C204.758 299.964 204.094 300.144 203.318 300.144ZM203.318 298.764C203.95 298.764 204.466 298.5 204.866 297.972C205.266 297.444 205.466 296.72 205.466 295.8C205.466 294.88 205.266 294.156 204.866 293.628C204.466 293.1 203.95 292.836 203.318 292.836C202.678 292.836 202.158 293.1 201.758 293.628C201.366 294.156 201.17 294.88 201.17 295.8C201.17 296.72 201.366 297.444 201.758 297.972C202.158 298.5 202.678 298.764 203.318 298.764ZM211.118 300.144C210.542 300.144 210.022 300.044 209.558 299.844C209.094 299.636 208.722 299.344 208.442 298.968C208.17 298.592 208.034 298.156 208.034 297.66C208.034 297.148 208.166 296.7 208.43 296.316C208.702 295.932 209.058 295.656 209.498 295.488C209.114 295.32 208.81 295.08 208.586 294.768C208.362 294.448 208.25 294.092 208.25 293.7C208.25 293.3 208.358 292.932 208.574 292.596C208.79 292.252 209.11 291.976 209.534 291.768C209.966 291.56 210.494 291.456 211.118 291.456C211.742 291.456 212.266 291.56 212.69 291.768C213.114 291.976 213.434 292.252 213.65 292.596C213.866 292.932 213.974 293.3 213.974 293.7C213.974 294.084 213.858 294.44 213.626 294.768C213.402 295.088 213.102 295.328 212.726 295.488C213.174 295.656 213.53 295.932 213.794 296.316C214.058 296.7 214.19 297.148 214.19 297.66C214.19 298.156 214.054 298.592 213.782 298.968C213.51 299.344 213.138 299.636 212.666 299.844C212.202 300.044 211.686 300.144 211.118 300.144ZM211.118 295.032C211.534 295.032 211.862 294.924 212.102 294.708C212.342 294.492 212.462 294.216 212.462 293.88C212.462 293.512 212.342 293.224 212.102 293.016C211.87 292.808 211.542 292.704 211.118 292.704C210.686 292.704 210.354 292.808 210.122 293.016C209.89 293.224 209.774 293.512 209.774 293.88C209.774 294.224 209.89 294.504 210.122 294.72C210.362 294.928 210.694 295.032 211.118 295.032ZM211.118 298.86C211.63 298.86 212.018 298.736 212.282 298.488C212.546 298.232 212.678 297.912 212.678 297.528C212.678 297.104 212.538 296.772 212.258 296.532C211.986 296.292 211.606 296.172 211.118 296.172C210.63 296.172 210.242 296.292 209.954 296.532C209.674 296.772 209.534 297.104 209.534 297.528C209.534 297.912 209.666 298.232 209.93 298.488C210.202 298.736 210.598 298.86 211.118 298.86Z" fill="#B0BBD5"/>
<path d="M277.852 300V293.352L276.472 293.676V292.5L278.5 291.6H279.448V300H277.852ZM280.633 300V298.884C281.145 298.46 281.641 298.04 282.121 297.624C282.609 297.208 283.041 296.796 283.417 296.388C283.801 295.98 284.105 295.584 284.329 295.2C284.561 294.808 284.677 294.428 284.677 294.06C284.677 293.716 284.581 293.412 284.389 293.148C284.205 292.884 283.897 292.752 283.465 292.752C283.025 292.752 282.693 292.896 282.469 293.184C282.245 293.472 282.133 293.82 282.133 294.228H280.645C280.661 293.612 280.797 293.1 281.053 292.692C281.309 292.276 281.649 291.968 282.073 291.768C282.497 291.56 282.973 291.456 283.501 291.456C284.357 291.456 285.021 291.692 285.493 292.164C285.973 292.628 286.213 293.232 286.213 293.976C286.213 294.44 286.105 294.892 285.889 295.332C285.681 295.772 285.405 296.196 285.061 296.604C284.717 297.012 284.345 297.396 283.945 297.756C283.545 298.108 283.157 298.436 282.781 298.74H286.417V300H280.633Z" fill="#B0BBD5"/>
<path d="M352.757 300V293.352L351.377 293.676V292.5L353.405 291.6H354.353V300H352.757ZM359.582 300V298.44H355.442V297.216L359.378 291.6H361.118V297.108H362.222V298.44H361.118V300H359.582ZM357.086 297.108H359.678V293.292L357.086 297.108Z" fill="#B0BBD5"/>
<path d="M427.327 300V293.352L425.947 293.676V292.5L427.975 291.6H428.923V300H427.327ZM433.468 300.144C432.836 300.144 432.304 300.028 431.872 299.796C431.44 299.564 431.092 299.252 430.828 298.86C430.564 298.468 430.372 298.032 430.252 297.552C430.14 297.072 430.084 296.58 430.084 296.076C430.084 295.14 430.216 294.328 430.48 293.64C430.744 292.944 431.124 292.408 431.62 292.032C432.116 291.648 432.716 291.456 433.42 291.456C433.996 291.456 434.484 291.572 434.884 291.804C435.292 292.028 435.608 292.324 435.832 292.692C436.056 293.06 436.188 293.456 436.228 293.88H434.8C434.728 293.512 434.572 293.228 434.332 293.028C434.092 292.828 433.784 292.728 433.408 292.728C432.872 292.728 432.44 292.976 432.112 293.472C431.784 293.96 431.608 294.708 431.584 295.716C431.776 295.388 432.064 295.116 432.448 294.9C432.832 294.684 433.26 294.576 433.732 294.576C434.196 294.576 434.632 294.688 435.04 294.912C435.448 295.136 435.776 295.452 436.024 295.86C436.28 296.268 436.408 296.748 436.408 297.3C436.408 297.804 436.284 298.272 436.036 298.704C435.796 299.136 435.452 299.484 435.004 299.748C434.564 300.012 434.052 300.144 433.468 300.144ZM433.384 298.824C433.832 298.824 434.2 298.688 434.488 298.416C434.784 298.136 434.932 297.784 434.932 297.36C434.932 296.912 434.784 296.552 434.488 296.28C434.192 296.008 433.816 295.872 433.36 295.872C433.064 295.872 432.796 295.94 432.556 296.076C432.324 296.204 432.14 296.38 432.004 296.604C431.868 296.82 431.8 297.064 431.8 297.336C431.8 297.768 431.948 298.124 432.244 298.404C432.548 298.684 432.928 298.824 433.384 298.824Z" fill="#B0BBD5"/>
<path d="M501.885 300V293.352L500.505 293.676V292.5L502.533 291.6H503.481V300H501.885ZM507.833 300.144C507.257 300.144 506.737 300.044 506.273 299.844C505.809 299.636 505.437 299.344 505.157 298.968C504.885 298.592 504.749 298.156 504.749 297.66C504.749 297.148 504.881 296.7 505.145 296.316C505.417 295.932 505.773 295.656 506.213 295.488C505.829 295.32 505.525 295.08 505.301 294.768C505.077 294.448 504.965 294.092 504.965 293.7C504.965 293.3 505.073 292.932 505.289 292.596C505.505 292.252 505.825 291.976 506.249 291.768C506.681 291.56 507.209 291.456 507.833 291.456C508.457 291.456 508.981 291.56 509.405 291.768C509.829 291.976 510.149 292.252 510.365 292.596C510.581 292.932 510.689 293.3 510.689 293.7C510.689 294.084 510.573 294.44 510.341 294.768C510.117 295.088 509.817 295.328 509.441 295.488C509.889 295.656 510.245 295.932 510.509 296.316C510.773 296.7 510.905 297.148 510.905 297.66C510.905 298.156 510.769 298.592 510.497 298.968C510.225 299.344 509.853 299.636 509.381 299.844C508.917 300.044 508.401 300.144 507.833 300.144ZM507.833 295.032C508.249 295.032 508.577 294.924 508.817 294.708C509.057 294.492 509.177 294.216 509.177 293.88C509.177 293.512 509.057 293.224 508.817 293.016C508.585 292.808 508.257 292.704 507.833 292.704C507.401 292.704 507.069 292.808 506.837 293.016C506.605 293.224 506.489 293.512 506.489 293.88C506.489 294.224 506.605 294.504 506.837 294.72C507.077 294.928 507.409 295.032 507.833 295.032ZM507.833 298.86C508.345 298.86 508.733 298.736 508.997 298.488C509.261 298.232 509.393 297.912 509.393 297.528C509.393 297.104 509.253 296.772 508.973 296.532C508.701 296.292 508.321 296.172 507.833 296.172C507.345 296.172 506.957 296.292 506.669 296.532C506.389 296.772 506.249 297.104 506.249 297.528C506.249 297.912 506.381 298.232 506.645 298.488C506.917 298.736 507.313 298.86 507.833 298.86Z" fill="#B0BBD5"/>
<path d="M509.474 40.422H506.492V43.446H505.302V40.422H502.334V39.344H505.302V36.306H506.492V39.344H509.474V40.422ZM511.387 43.978C512.572 43.026 513.501 42.2467 514.173 41.64C514.845 41.024 515.41 40.3847 515.867 39.722C516.334 39.05 516.567 38.392 516.567 37.748C516.567 37.1413 516.418 36.6653 516.119 36.32C515.83 35.9653 515.358 35.788 514.705 35.788C514.07 35.788 513.576 35.9887 513.221 36.39C512.876 36.782 512.689 37.3093 512.661 37.972H511.429C511.466 36.9267 511.784 36.1193 512.381 35.55C512.978 34.9807 513.748 34.696 514.691 34.696C515.652 34.696 516.413 34.962 516.973 35.494C517.542 36.026 517.827 36.7587 517.827 37.692C517.827 38.4667 517.594 39.2227 517.127 39.96C516.67 40.688 516.147 41.332 515.559 41.892C514.971 42.4427 514.22 43.0867 513.305 43.824H518.121V44.888H511.387V43.978ZM520.21 45.084C519.967 45.084 519.762 45 519.594 44.832C519.426 44.664 519.342 44.4587 519.342 44.216C519.342 43.9733 519.426 43.768 519.594 43.6C519.762 43.432 519.967 43.348 520.21 43.348C520.443 43.348 520.639 43.432 520.798 43.6C520.966 43.768 521.05 43.9733 521.05 44.216C521.05 44.4587 520.966 44.664 520.798 44.832C520.639 45 520.443 45.084 520.21 45.084ZM522.225 42.746V41.78L527.139 34.976H528.665V41.64H530.065V42.746H528.665V45H527.405V42.746H522.225ZM527.461 36.306L523.695 41.64H527.461V36.306ZM537.792 35.984H532.878V39.176C533.092 38.8773 533.41 38.6347 533.83 38.448C534.25 38.252 534.702 38.154 535.188 38.154C535.962 38.154 536.592 38.3173 537.078 38.644C537.563 38.9613 537.908 39.3767 538.114 39.89C538.328 40.394 538.436 40.9307 538.436 41.5C538.436 42.172 538.31 42.774 538.058 43.306C537.806 43.838 537.418 44.258 536.896 44.566C536.382 44.874 535.743 45.028 534.978 45.028C533.998 45.028 533.204 44.776 532.598 44.272C531.991 43.768 531.622 43.096 531.492 42.256H532.738C532.859 42.788 533.116 43.2033 533.508 43.502C533.9 43.8007 534.394 43.95 534.992 43.95C535.729 43.95 536.284 43.7307 536.658 43.292C537.031 42.844 537.218 42.256 537.218 41.528C537.218 40.8 537.031 40.24 536.658 39.848C536.284 39.4467 535.734 39.246 535.006 39.246C534.511 39.246 534.077 39.3673 533.704 39.61C533.34 39.8433 533.074 40.1653 532.906 40.576H531.702V34.864H537.792V35.984ZM539.849 37.16C539.849 36.5253 540.04 36.0213 540.423 35.648C540.805 35.2653 541.295 35.074 541.893 35.074C542.49 35.074 542.98 35.2653 543.363 35.648C543.745 36.0213 543.937 36.5253 543.937 37.16C543.937 37.804 543.745 38.3173 543.363 38.7C542.98 39.0733 542.49 39.26 541.893 39.26C541.295 39.26 540.805 39.0733 540.423 38.7C540.04 38.3173 539.849 37.804 539.849 37.16ZM548.025 35.228L542.355 45H541.095L546.765 35.228H548.025ZM541.893 35.858C541.575 35.858 541.323 35.97 541.137 36.194C540.959 36.4087 540.871 36.7307 540.871 37.16C540.871 37.5893 540.959 37.916 541.137 38.14C541.323 38.364 541.575 38.476 541.893 38.476C542.21 38.476 542.462 38.364 542.649 38.14C542.835 37.9067 542.929 37.58 542.929 37.16C542.929 36.7307 542.835 36.4087 542.649 36.194C542.462 35.97 542.21 35.858 541.893 35.858ZM545.211 43.068C545.211 42.424 545.402 41.9153 545.785 41.542C546.167 41.1593 546.657 40.968 547.255 40.968C547.852 40.968 548.337 41.1593 548.711 41.542C549.093 41.9153 549.285 42.424 549.285 43.068C549.285 43.7027 549.093 44.2113 548.711 44.594C548.337 44.9767 547.852 45.168 547.255 45.168C546.657 45.168 546.167 44.9813 545.785 44.608C545.402 44.2253 545.211 43.712 545.211 43.068ZM547.241 41.766C546.923 41.766 546.671 41.878 546.485 42.102C546.298 42.3167 546.205 42.6387 546.205 43.068C546.205 43.488 546.298 43.81 546.485 44.034C546.671 44.2487 546.923 44.356 547.241 44.356C547.558 44.356 547.81 44.2487 547.997 44.034C548.183 43.81 548.277 43.488 548.277 43.068C548.277 42.6387 548.183 42.3167 547.997 42.102C547.81 41.878 547.558 41.766 547.241 41.766Z" fill="#05CD99"/>
<g clip-path="url(#clip0_160_9537)">
<path d="M488.25 41.5L492 37.75L495.75 41.5H488.25Z" fill="#05CD99"/>
</g>
<path d="M497.65 270L497.65 239.783C497.65 234.267 502.122 229.796 507.638 229.796C513.153 229.796 517.625 234.267 517.625 239.783L517.625 270L497.65 270Z" fill="url(#paint0_linear_160_9537)"/>
<path d="M422.033 270L422.033 126.987C422.033 121.471 426.505 117 432.021 117C437.536 117 442.008 121.471 442.008 126.987L442.008 270L422.033 270Z" fill="url(#paint1_linear_160_9537)"/>
<path d="M347.843 270L347.843 163.841C347.843 158.325 352.315 153.854 357.83 153.854C363.346 153.854 367.817 158.325 367.817 163.841L367.817 270L347.843 270Z" fill="url(#paint2_linear_160_9537)"/>
<path d="M272.226 270L272.226 192.878C272.226 187.362 276.698 182.891 282.213 182.891C287.729 182.891 292.201 187.362 292.201 192.878L292.201 270L272.226 270Z" fill="url(#paint3_linear_160_9537)"/>
<path d="M196.609 270L196.609 141.505C196.609 135.99 201.081 131.518 206.596 131.518C212.112 131.518 216.584 135.99 216.584 141.505L216.584 270L196.609 270Z" fill="url(#paint4_linear_160_9537)"/>
<path d="M122.419 270L122.419 209.629C122.419 204.114 126.89 199.642 132.406 199.642C137.922 199.642 142.393 204.114 142.393 209.629L142.393 270L122.419 270Z" fill="url(#paint5_linear_160_9537)"/>
<path d="M46.8021 270L46.8021 180.593C46.8021 175.077 51.2735 170.606 56.7892 170.606C62.305 170.606 66.7764 175.077 66.7764 180.593L66.7764 270L46.8021 270Z" fill="url(#paint6_linear_160_9537)"/>
<path d="M35.26 33.04C36.7267 33.04 38.0133 33.3267 39.12 33.9C40.24 34.4733 41.1 35.2933 41.7 36.36C42.3133 37.4133 42.62 38.64 42.62 40.04C42.62 41.44 42.3133 42.6667 41.7 43.72C41.1 44.76 40.24 45.5667 39.12 46.14C38.0133 46.7133 36.7267 47 35.26 47H30.38V33.04H35.26ZM35.16 44.62C36.6267 44.62 37.76 44.22 38.56 43.42C39.36 42.62 39.76 41.4933 39.76 40.04C39.76 38.5867 39.36 37.4533 38.56 36.64C37.76 35.8133 36.6267 35.4 35.16 35.4H33.18V44.62H35.16ZM43.9959 41.42C43.9959 40.3 44.2159 39.3067 44.6559 38.44C45.1093 37.5733 45.7159 36.9067 46.4759 36.44C47.2493 35.9733 48.1093 35.74 49.0559 35.74C49.8826 35.74 50.6026 35.9067 51.2159 36.24C51.8426 36.5733 52.3426 36.9933 52.7159 37.5V35.92H55.5359V47H52.7159V45.38C52.3559 45.9 51.8559 46.3333 51.2159 46.68C50.5893 47.0133 49.8626 47.18 49.0359 47.18C48.1026 47.18 47.2493 46.94 46.4759 46.46C45.7159 45.98 45.1093 45.3067 44.6559 44.44C44.2159 43.56 43.9959 42.5533 43.9959 41.42ZM52.7159 41.46C52.7159 40.78 52.5826 40.2 52.3159 39.72C52.0493 39.2267 51.6893 38.8533 51.2359 38.6C50.7826 38.3333 50.2959 38.2 49.7759 38.2C49.2559 38.2 48.7759 38.3267 48.3359 38.58C47.8959 38.8333 47.5359 39.2067 47.2559 39.7C46.9893 40.18 46.8559 40.7533 46.8559 41.42C46.8559 42.0867 46.9893 42.6733 47.2559 43.18C47.5359 43.6733 47.8959 44.0533 48.3359 44.32C48.7893 44.5867 49.2693 44.72 49.7759 44.72C50.2959 44.72 50.7826 44.5933 51.2359 44.34C51.6893 44.0733 52.0493 43.7 52.3159 43.22C52.5826 42.7267 52.7159 42.14 52.7159 41.46ZM59.6906 34.6C59.1973 34.6 58.784 34.4467 58.4506 34.14C58.1306 33.82 57.9706 33.4267 57.9706 32.96C57.9706 32.4933 58.1306 32.1067 58.4506 31.8C58.784 31.48 59.1973 31.32 59.6906 31.32C60.184 31.32 60.5906 31.48 60.9106 31.8C61.244 32.1067 61.4106 32.4933 61.4106 32.96C61.4106 33.4267 61.244 33.82 60.9106 34.14C60.5906 34.4467 60.184 34.6 59.6906 34.6ZM61.0706 35.92V47H58.2706V35.92H61.0706ZM66.637 32.2V47H63.837V32.2H66.637ZM80.0034 35.92L73.1434 52.24H70.1634L72.5634 46.72L68.1234 35.92H71.2634L74.1234 43.66L77.0234 35.92H80.0034ZM95.7784 33.04V35.3H92.0584V47H89.2584V35.3H85.5384V33.04H95.7784ZM100.621 37.64C100.981 37.0533 101.448 36.5933 102.021 36.26C102.608 35.9267 103.275 35.76 104.021 35.76V38.7H103.281C102.401 38.7 101.735 38.9067 101.281 39.32C100.841 39.7333 100.621 40.4533 100.621 41.48V47H97.8214V35.92H100.621V37.64ZM105.187 41.42C105.187 40.3 105.407 39.3067 105.847 38.44C106.301 37.5733 106.907 36.9067 107.667 36.44C108.441 35.9733 109.301 35.74 110.247 35.74C111.074 35.74 111.794 35.9067 112.407 36.24C113.034 36.5733 113.534 36.9933 113.907 37.5V35.92H116.727V47H113.907V45.38C113.547 45.9 113.047 46.3333 112.407 46.68C111.781 47.0133 111.054 47.18 110.227 47.18C109.294 47.18 108.441 46.94 107.667 46.46C106.907 45.98 106.301 45.3067 105.847 44.44C105.407 43.56 105.187 42.5533 105.187 41.42ZM113.907 41.46C113.907 40.78 113.774 40.2 113.507 39.72C113.241 39.2267 112.881 38.8533 112.427 38.6C111.974 38.3333 111.487 38.2 110.967 38.2C110.447 38.2 109.967 38.3267 109.527 38.58C109.087 38.8333 108.727 39.2067 108.447 39.7C108.181 40.18 108.047 40.7533 108.047 41.42C108.047 42.0867 108.181 42.6733 108.447 43.18C108.727 43.6733 109.087 44.0533 109.527 44.32C109.981 44.5867 110.461 44.72 110.967 44.72C111.487 44.72 111.974 44.5933 112.427 44.34C112.881 44.0733 113.241 43.7 113.507 43.22C113.774 42.7267 113.907 42.14 113.907 41.46ZM124.542 38.22H122.602V47H119.762V38.22H118.502V35.92H119.762V35.36C119.762 34 120.149 33 120.922 32.36C121.695 31.72 122.862 31.42 124.422 31.46V33.82C123.742 33.8067 123.269 33.92 123.002 34.16C122.735 34.4 122.602 34.8333 122.602 35.46V35.92H124.542V38.22ZM131.437 38.22H129.497V47H126.657V38.22H125.397V35.92H126.657V35.36C126.657 34 127.043 33 127.817 32.36C128.59 31.72 129.757 31.42 131.317 31.46V33.82C130.637 33.8067 130.163 33.92 129.897 34.16C129.63 34.4 129.497 34.8333 129.497 35.46V35.92H131.437V38.22ZM134.671 34.6C134.178 34.6 133.764 34.4467 133.431 34.14C133.111 33.82 132.951 33.4267 132.951 32.96C132.951 32.4933 133.111 32.1067 133.431 31.8C133.764 31.48 134.178 31.32 134.671 31.32C135.164 31.32 135.571 31.48 135.891 31.8C136.224 32.1067 136.391 32.4933 136.391 32.96C136.391 33.4267 136.224 33.82 135.891 34.14C135.571 34.4467 135.164 34.6 134.671 34.6ZM136.051 35.92V47H133.251V35.92H136.051ZM138.097 41.46C138.097 40.3133 138.331 39.3133 138.798 38.46C139.264 37.5933 139.911 36.9267 140.738 36.46C141.564 35.98 142.511 35.74 143.578 35.74C144.951 35.74 146.084 36.0867 146.978 36.78C147.884 37.46 148.491 38.42 148.798 39.66H145.778C145.618 39.18 145.344 38.8067 144.958 38.54C144.584 38.26 144.118 38.12 143.558 38.12C142.758 38.12 142.124 38.4133 141.658 39C141.191 39.5733 140.958 40.3933 140.958 41.46C140.958 42.5133 141.191 43.3333 141.658 43.92C142.124 44.4933 142.758 44.78 143.558 44.78C144.691 44.78 145.431 44.2733 145.778 43.26H148.798C148.491 44.46 147.884 45.4133 146.978 46.12C146.071 46.8267 144.938 47.18 143.578 47.18C142.511 47.18 141.564 46.9467 140.738 46.48C139.911 46 139.264 45.3333 138.798 44.48C138.331 43.6133 138.097 42.6067 138.097 41.46Z" fill="black"/>
<path d="M32.298 81.628C34.474 79.8147 36.208 78.3073 37.5 77.106C38.792 75.882 39.8687 74.6127 40.73 73.298C41.5913 71.9833 42.022 70.6913 42.022 69.422C42.022 68.266 41.75 67.3593 41.206 66.702C40.662 66.0447 39.8233 65.716 38.69 65.716C37.5567 65.716 36.684 66.1013 36.072 66.872C35.46 67.62 35.1427 68.6513 35.12 69.966H30.496C30.5867 67.246 31.3913 65.1833 32.91 63.778C34.4513 62.3727 36.4007 61.67 38.758 61.67C41.342 61.67 43.3253 62.3613 44.708 63.744C46.0907 65.104 46.782 66.906 46.782 69.15C46.782 70.918 46.306 72.6067 45.354 74.216C44.402 75.8253 43.314 77.2307 42.09 78.432C40.866 79.6107 39.268 81.0387 37.296 82.716H47.326V86.66H30.53V83.124L32.298 81.628ZM52.9774 87.238C52.1161 87.238 51.4021 86.9773 50.8354 86.456C50.2914 85.912 50.0194 85.2433 50.0194 84.45C50.0194 83.6567 50.2914 82.9993 50.8354 82.478C51.4021 81.934 52.1161 81.662 52.9774 81.662C53.8161 81.662 54.5074 81.934 55.0514 82.478C55.5954 82.9993 55.8674 83.6567 55.8674 84.45C55.8674 85.2433 55.5954 85.912 55.0514 86.456C54.5074 86.9773 53.8161 87.238 52.9774 87.238ZM75.8175 66.328H64.8015V72.142C65.2775 71.5527 65.9575 71.0767 66.8415 70.714C67.7255 70.3287 68.6661 70.136 69.6635 70.136C71.4768 70.136 72.9615 70.5327 74.1175 71.326C75.2735 72.1193 76.1121 73.1393 76.6335 74.386C77.1548 75.61 77.4155 76.9247 77.4155 78.33C77.4155 80.9367 76.6675 83.0333 75.1715 84.62C73.6981 86.2067 71.5901 87 68.8475 87C66.2635 87 64.2008 86.354 62.6595 85.062C61.1181 83.77 60.2455 82.0813 60.0415 79.996H64.6655C64.8695 80.9027 65.3228 81.628 66.0255 82.172C66.7508 82.716 67.6688 82.988 68.7795 82.988C70.1168 82.988 71.1255 82.5687 71.8055 81.73C72.4855 80.8913 72.8255 79.7807 72.8255 78.398C72.8255 76.9927 72.4741 75.9273 71.7715 75.202C71.0915 74.454 70.0828 74.08 68.7455 74.08C67.7935 74.08 67.0001 74.318 66.3655 74.794C65.7308 75.27 65.2775 75.9047 65.0055 76.698H60.4495V62.146H75.8175V66.328ZM96.8143 65.818L87.7703 87H82.9423L92.0543 66.362H80.4263V62.282H96.8143V65.818ZM105.173 80.03C105.355 81.0273 105.763 81.798 106.397 82.342C107.055 82.8633 107.927 83.124 109.015 83.124C110.421 83.124 111.441 82.546 112.075 81.39C112.71 80.2113 113.027 78.2393 113.027 75.474C112.506 76.1993 111.769 76.766 110.817 77.174C109.888 77.582 108.879 77.786 107.791 77.786C106.341 77.786 105.026 77.4913 103.847 76.902C102.691 76.29 101.773 75.3947 101.093 74.216C100.413 73.0147 100.073 71.564 100.073 69.864C100.073 67.348 100.821 65.3533 102.317 63.88C103.813 62.384 105.853 61.636 108.437 61.636C111.656 61.636 113.923 62.6673 115.237 64.73C116.575 66.7927 117.243 69.898 117.243 74.046C117.243 76.9927 116.983 79.4067 116.461 81.288C115.963 83.1693 115.09 84.5973 113.843 85.572C112.619 86.5467 110.942 87.034 108.811 87.034C107.134 87.034 105.706 86.7167 104.527 86.082C103.349 85.4247 102.442 84.5747 101.807 83.532C101.195 82.4667 100.844 81.2993 100.753 80.03H105.173ZM108.777 73.91C109.956 73.91 110.885 73.5473 111.565 72.822C112.245 72.0967 112.585 71.122 112.585 69.898C112.585 68.5607 112.223 67.5293 111.497 66.804C110.795 66.056 109.831 65.682 108.607 65.682C107.383 65.682 106.409 66.0673 105.683 66.838C104.981 67.586 104.629 68.5833 104.629 69.83C104.629 71.0313 104.969 72.0173 105.649 72.788C106.352 73.536 107.395 73.91 108.777 73.91Z" fill="#2B3674"/>
<path d="M141.142 70.242L137.46 80H135.99L132.308 70.242H133.666L136.732 78.656L139.798 70.242H141.142ZM143.197 71.082C142.954 71.082 142.749 70.998 142.581 70.83C142.413 70.662 142.329 70.4567 142.329 70.214C142.329 69.9713 142.413 69.766 142.581 69.598C142.749 69.43 142.954 69.346 143.197 69.346C143.43 69.346 143.626 69.43 143.785 69.598C143.953 69.766 144.037 69.9713 144.037 70.214C144.037 70.4567 143.953 70.662 143.785 70.83C143.626 70.998 143.43 71.082 143.197 71.082ZM143.813 72.328V80H142.539V72.328H143.813ZM148.7 80.126C148.112 80.126 147.585 80.028 147.118 79.832C146.652 79.6267 146.283 79.3467 146.012 78.992C145.742 78.628 145.592 78.2127 145.564 77.746H146.88C146.918 78.1287 147.095 78.4413 147.412 78.684C147.739 78.9267 148.164 79.048 148.686 79.048C149.172 79.048 149.554 78.9407 149.834 78.726C150.114 78.5113 150.254 78.2407 150.254 77.914C150.254 77.578 150.105 77.3307 149.806 77.172C149.508 77.004 149.046 76.8407 148.42 76.682C147.851 76.5327 147.384 76.3833 147.02 76.234C146.666 76.0753 146.358 75.8467 146.096 75.548C145.844 75.24 145.718 74.8387 145.718 74.344C145.718 73.952 145.835 73.5927 146.068 73.266C146.302 72.9393 146.633 72.6827 147.062 72.496C147.492 72.3 147.982 72.202 148.532 72.202C149.382 72.202 150.068 72.4167 150.59 72.846C151.113 73.2753 151.393 73.8633 151.43 74.61H150.156C150.128 74.2087 149.965 73.8867 149.666 73.644C149.377 73.4013 148.985 73.28 148.49 73.28C148.033 73.28 147.669 73.378 147.398 73.574C147.128 73.77 146.992 74.0267 146.992 74.344C146.992 74.596 147.072 74.806 147.23 74.974C147.398 75.1327 147.604 75.2633 147.846 75.366C148.098 75.4593 148.444 75.5667 148.882 75.688C149.433 75.8373 149.881 75.9867 150.226 76.136C150.572 76.276 150.866 76.4907 151.108 76.78C151.36 77.0693 151.491 77.4473 151.5 77.914C151.5 78.334 151.384 78.712 151.15 79.048C150.917 79.384 150.586 79.65 150.156 79.846C149.736 80.0327 149.251 80.126 148.7 80.126ZM153.957 71.082C153.714 71.082 153.509 70.998 153.341 70.83C153.173 70.662 153.089 70.4567 153.089 70.214C153.089 69.9713 153.173 69.766 153.341 69.598C153.509 69.43 153.714 69.346 153.957 69.346C154.19 69.346 154.386 69.43 154.545 69.598C154.713 69.766 154.797 69.9713 154.797 70.214C154.797 70.4567 154.713 70.662 154.545 70.83C154.386 70.998 154.19 71.082 153.957 71.082ZM154.573 72.328V80H153.299V72.328H154.573ZM158.298 73.378V77.9C158.298 78.2733 158.377 78.5393 158.536 78.698C158.695 78.8473 158.97 78.922 159.362 78.922H160.3V80H159.152C158.443 80 157.911 79.8367 157.556 79.51C157.201 79.1833 157.024 78.6467 157.024 77.9V73.378H156.03V72.328H157.024V70.396H158.298V72.328H160.3V73.378H158.298ZM165.19 80.126C164.471 80.126 163.818 79.9627 163.23 79.636C162.651 79.3093 162.194 78.8473 161.858 78.25C161.531 77.6433 161.368 76.9433 161.368 76.15C161.368 75.366 161.536 74.6753 161.872 74.078C162.217 73.4713 162.684 73.0093 163.272 72.692C163.86 72.3653 164.518 72.202 165.246 72.202C165.974 72.202 166.632 72.3653 167.22 72.692C167.808 73.0093 168.27 73.4667 168.606 74.064C168.951 74.6613 169.124 75.3567 169.124 76.15C169.124 76.9433 168.946 77.6433 168.592 78.25C168.246 78.8473 167.775 79.3093 167.178 79.636C166.58 79.9627 165.918 80.126 165.19 80.126ZM165.19 79.006C165.647 79.006 166.076 78.8987 166.478 78.684C166.879 78.4693 167.201 78.1473 167.444 77.718C167.696 77.2887 167.822 76.766 167.822 76.15C167.822 75.534 167.7 75.0113 167.458 74.582C167.215 74.1527 166.898 73.8353 166.506 73.63C166.114 73.4153 165.689 73.308 165.232 73.308C164.765 73.308 164.336 73.4153 163.944 73.63C163.561 73.8353 163.253 74.1527 163.02 74.582C162.786 75.0113 162.67 75.534 162.67 76.15C162.67 76.7753 162.782 77.3027 163.006 77.732C163.239 78.1613 163.547 78.4833 163.93 78.698C164.312 78.9033 164.732 79.006 165.19 79.006ZM172.073 73.574C172.297 73.1353 172.614 72.7947 173.025 72.552C173.445 72.3093 173.953 72.188 174.551 72.188V73.504H174.215C172.787 73.504 172.073 74.2787 172.073 75.828V80H170.799V72.328H172.073V73.574ZM178.737 80.126C178.149 80.126 177.622 80.028 177.155 79.832C176.689 79.6267 176.32 79.3467 176.049 78.992C175.779 78.628 175.629 78.2127 175.601 77.746H176.917C176.955 78.1287 177.132 78.4413 177.449 78.684C177.776 78.9267 178.201 79.048 178.723 79.048C179.209 79.048 179.591 78.9407 179.871 78.726C180.151 78.5113 180.291 78.2407 180.291 77.914C180.291 77.578 180.142 77.3307 179.843 77.172C179.545 77.004 179.083 76.8407 178.457 76.682C177.888 76.5327 177.421 76.3833 177.057 76.234C176.703 76.0753 176.395 75.8467 176.133 75.548C175.881 75.24 175.755 74.8387 175.755 74.344C175.755 73.952 175.872 73.5927 176.105 73.266C176.339 72.9393 176.67 72.6827 177.099 72.496C177.529 72.3 178.019 72.202 178.569 72.202C179.419 72.202 180.105 72.4167 180.627 72.846C181.15 73.2753 181.43 73.8633 181.467 74.61H180.193C180.165 74.2087 180.002 73.8867 179.703 73.644C179.414 73.4013 179.022 73.28 178.527 73.28C178.07 73.28 177.706 73.378 177.435 73.574C177.165 73.77 177.029 74.0267 177.029 74.344C177.029 74.596 177.109 74.806 177.267 74.974C177.435 75.1327 177.641 75.2633 177.883 75.366C178.135 75.4593 178.481 75.5667 178.919 75.688C179.47 75.8373 179.918 75.9867 180.263 76.136C180.609 76.276 180.903 76.4907 181.145 76.78C181.397 77.0693 181.528 77.4473 181.537 77.914C181.537 78.334 181.421 78.712 181.187 79.048C180.954 79.384 180.623 79.65 180.193 79.846C179.773 80.0327 179.288 80.126 178.737 80.126Z" fill="#A3AED0"/>
</g>
<defs>
<filter id="filter0_d_160_9537" x="0" y="0" width="563" height="353" filterUnits="userSpaceOnUse" color-interpolation-filters="sRGB">
<feFlood flood-opacity="0" result="BackgroundImageFix"/>
<feColorMatrix in="SourceAlpha" type="matrix" values="0 0 0 0 0 0 0 0 0 0 0 0 0 0 0 0 0 0 127 0" result="hardAlpha"/>
<feOffset dy="4"/>
<feGaussianBlur stdDeviation="2"/>
<feComposite in2="hardAlpha" operator="out"/>
<feColorMatrix type="matrix" values="0 0 0 0 0 0 0 0 0 0 0 0 0 0 0 0 0 0 0.25 0"/>
<feBlend mode="normal" in2="BackgroundImageFix" result="effect1_dropShadow_160_9537"/>
<feBlend mode="normal" in="SourceGraphic" in2="effect1_dropShadow_160_9537" result="shape"/>
</filter>
<linearGradient id="paint0_linear_160_9537" x1="507.637" y1="232.029" x2="507.637" y2="270" gradientUnits="userSpaceOnUse">
<stop stop-color="#264ECA" stop-opacity="0.5"/>
<stop offset="1" stop-color="#264ECA" stop-opacity="0.75"/>
</linearGradient>
<linearGradient id="paint1_linear_160_9537" x1="432.02" y1="125.5" x2="432.02" y2="270" gradientUnits="userSpaceOnUse">
<stop stop-color="#264ECA" stop-opacity="0.5"/>
<stop offset="1" stop-color="#264ECA" stop-opacity="0.75"/>
</linearGradient>
<linearGradient id="paint2_linear_160_9537" x1="357.83" y1="160.307" x2="357.83" y2="270" gradientUnits="userSpaceOnUse">
<stop stop-color="#264ECA" stop-opacity="0.5"/>
<stop offset="1" stop-color="#264ECA" stop-opacity="0.75"/>
</linearGradient>
<linearGradient id="paint3_linear_160_9537" x1="282.213" y1="187.73" x2="282.213" y2="270" gradientUnits="userSpaceOnUse">
<stop stop-color="#264ECA" stop-opacity="0.5"/>
<stop offset="1" stop-color="#264ECA" stop-opacity="0.75"/>
</linearGradient>
<linearGradient id="paint4_linear_160_9537" x1="206.596" y1="139.212" x2="206.596" y2="270" gradientUnits="userSpaceOnUse">
<stop stop-color="#264ECA" stop-opacity="0.5"/>
<stop offset="1" stop-color="#264ECA" stop-opacity="0.75"/>
</linearGradient>
<linearGradient id="paint5_linear_160_9537" x1="132.406" y1="203.551" x2="132.406" y2="270" gradientUnits="userSpaceOnUse">
<stop stop-color="#264ECA" stop-opacity="0.5"/>
<stop offset="1" stop-color="#264ECA" stop-opacity="0.75"/>
</linearGradient>
<linearGradient id="paint6_linear_160_9537" x1="56.7889" y1="176.128" x2="56.7889" y2="270" gradientUnits="userSpaceOnUse">
<stop stop-color="#264ECA" stop-opacity="0.5"/>
<stop offset="1" stop-color="#264ECA" stop-opacity="0.75"/>
</linearGradient>
<clipPath id="clip0_160_9537">
<rect width="18" height="18" fill="white" transform="translate(483 31)"/>
</clipPath>
</defs>
</svg>
